<?xml version="1.0" encoding="utf-8"?>
<!-- Generator: Adobe Illustrator 21.0.0, SVG Export Plug-In . SVG Version: 6.00 Build 0)  -->
<!DOCTYPE svg PUBLIC "-//W3C//DTD SVG 1.1//EN" "http://www.w3.org/Graphics/SVG/1.1/DTD/svg11.dtd">
<svg version="1.1" id="Laag_1" xmlns="http://www.w3.org/2000/svg" xmlns:xlink="http://www.w3.org/1999/xlink" x="0px" y="0px"
	 width="1275px" height="850px" viewBox="0 0 1275 850" style="enable-background:new 0 0 1275 850;" xml:space="preserve">
<style type="text/css">
	.st0{fill:none;}
	.st1{fill:#0F1941;}
	.st2{fill:#FFB511;}
	.st3{fill:#F7F5F0;}
	.st4{fill:#2175D9;}
</style>
<rect class="st0" width="1275" height="850"/>
<path class="st1" d="M434.1,147.7c6.5,0,12.7,1,18.6,2.7V0.6h-37.2v149.8C421.4,148.7,427.6,147.7,434.1,147.7z"/>
<circle class="st2" cx="434.1" cy="212.3" r="64.6"/>
<path class="st1" d="M600.3,609.3c-6.5,0-12.7-1-18.6-2.7V850h37.2V606.6C613,608.4,606.8,609.3,600.3,609.3z"/>
<circle class="st3" cx="600.3" cy="544.7" r="64.6"/>
<path class="st1" d="M1136.4,313.9c6.5,0,12.7,1,18.6,2.7V0.6h-37.2v316C1123.6,314.9,1129.9,313.9,1136.4,313.9z"/>
<path class="st1" d="M997.7,0v480.4c0,25.4-20.6,46-46,46c-0.3,0-0.7,0-1,0h-29.5c1.8,5.9,2.8,12.2,2.8,18.7c0,6.4-1,12.7-2.7,18.5
	h30.5c0.4,0,0.7,0,1.1,0c45.4-0.6,82.1-37.7,82.1-83.2V0H997.7z"/>
<circle class="st3" cx="859.3" cy="545.2" r="64.6"/>
<path class="st1" d="M886.8,0v314.2c0,25.4-20.6,46-46,46H662.2c1.8,5.9,2.7,12.1,2.7,18.6c0,6.5-1,12.7-2.7,18.6h178.6
	c45.7,0,82.9-37,83.2-82.6c0-0.1,0-0.2,0-0.3V0H886.8z"/>
<circle class="st4" cx="600.3" cy="378.8" r="64.6"/>
<circle class="st4" cx="1136.4" cy="378.5" r="64.6"/>
<path class="st1" d="M369.5,378.5c0-6.4,0.9-12.5,2.6-18.3h-48.8c-0.4,0-0.7,0-1.1,0c-45.2,0.6-81.8,37.4-82.1,82.6
	c0,0.1,0,0.2,0,0.3V850h37.2V443.5c0-25.4,20.6-46,46-46c0.3,0,0.7,0,1,0h48C370.5,391.5,369.5,385.1,369.5,378.5z"/>
<circle class="st4" cx="434.1" cy="378.5" r="64.6"/>
<g>
</g>
<g>
</g>
<g>
</g>
<g>
</g>
<g>
</g>
<g>
</g>
<g>
</g>
<g>
</g>
<g>
</g>
<g>
</g>
<g>
</g>
<g>
</g>
<g>
</g>
<g>
</g>
<g>
</g>
</svg>
